<svg width="1000" height="720" viewBox="0 0 1000 720" fill="none" xmlns="http://www.w3.org/2000/svg">
  <g id="China">
    <g id="Stage1">
      <g id="110000-北京市">
        <path id="110000-北京市_2" fill-rule="evenodd" clip-rule="evenodd" d="M677.7 229.9L680.2 228.8L671.9 228.0L667.1 222.9L666.4 224.2L664.3 224.1L664.6 225.2L662.5 224.8L664.4 227.1L661.1 226.8L659.8 228.7L653.7 230.5L656.9 234.5L649.1 238.0L648.6 239.1L650.7 241.1L648.9 241.5L649.4 243.5L654.3 245.5L655.9 244.2L660.3 244.3L663.9 246.5L663.4 245.2L665.3 244.2L669.3 244.2L671.8 241.6L669.2 239.9L669.2 237.8L675.6 237.3L678.3 235.6L675.6 231.1L677.7 229.9L677.7 229.9Z" fill="#A2A2A2" stroke="#D8D8D8" stroke-width="1.65" stroke-linejoin="round" vector-effect="non-scaling-stroke"/>
        <g id="Centre_1"><circle id="Centre_110000" cx="663.7" cy="235.6" r="4.5" fill="white"/></g>
      </g>
      <g id="120000-天津市">
        <path id="120000-天津市_2" fill-rule="evenodd" clip-rule="evenodd" d="M684.2 247.2L685.8 247.1L686.8 244.7L682.5 244.6L680.2 239.8L680.8 238.4L684.4 238.9L684.3 237.6L678.8 234.8L675.4 237.4L675.0 240.2L676.3 240.8L674.9 241.0L675.2 243.6L671.5 242.6L669.7 244.0L669.3 246.2L670.7 246.6L669.8 247.5L671.2 251.4L668.8 252.5L668.7 256.7L673.7 257.8L674.3 259.2L675.9 258.4L676.5 259.6L683.8 257.9L682.5 255.7L685.6 255.3L685.9 251.4L688.8 249.4L684.8 247.6L680.5 247.8L683.2 247.1L684.2 247.2Z" fill="#A2A2A2" stroke="#D8D8D8" stroke-width="1.65" stroke-linejoin="round" vector-effect="non-scaling-stroke"/>
        <g id="Centre_2"><circle id="Centre_120000" cx="681.8" cy="248.8" r="4.5" fill="white"/></g>
      </g>
      <g id="130000-河北省">
        <path id="130000-河北省_2" fill-rule="evenodd" clip-rule="evenodd" d="M679.5 228.9L675.6 231.1L675.9 233.0L677.8 235.0L680.8 235.0L684.3 237.6L684.4 238.9L680.3 239.2L682.2 244.2L683.4 245.3L686.8 244.7L684.9 247.9L688.2 248.9L691.3 252.7L695.4 254.7L697.1 253.8L696.7 251.4L702.3 250.8L701.9 251.6L707.1 248.2L708.3 242.8L710.8 241.8L710.9 240.7L715.8 239.8L713.8 236.1L712.2 235.7L710.8 231.1L706.3 231.0L705.2 229.0L703.3 229.2L700.1 226.8L700.9 224.8L702.3 224.8L701.4 223.5L703.5 222.9L705.7 219.9L692.5 219.1L691.8 216.1L689.2 213.5L692.2 211.9L690.7 209.3L691.5 208.8L688.9 209.1L688.7 207.2L686.8 206.3L688.0 205.3L687.4 204.1L684.1 200.8L679.3 200.9L678.1 202.9L671.1 203.7L670.9 206.7L669.2 206.6L670.7 208.1L669.3 209.7L662.1 209.5L659.0 212.6L655.0 210.3L647.8 213.7L648.2 215.2L640.5 215.4L641.8 211.8L639.7 207.5L635.5 208.1L635.5 210.0L630.8 212.8L631.2 216.8L626.8 217.3L626.2 219.8L627.9 220.9L624.9 223.0L628.4 225.4L628.1 226.7L631.6 230.1L631.9 233.3L635.2 233.6L628.7 235.9L628.5 237.7L627.0 237.2L625.8 238.6L630.3 240.7L633.0 240.6L633.1 243.8L635.5 244.9L633.5 250.8L629.5 252.7L627.6 251.5L623.4 253.8L624.2 257.1L619.9 260.2L619.5 264.5L623.9 265.9L627.0 271.9L626.2 272.7L628.4 273.1L622.6 281.1L622.5 285.6L621.4 285.2L621.1 286.6L617.7 287.9L619.5 291.6L635.0 296.5L640.0 296.1L640.0 297.5L643.3 295.1L647.1 296.7L648.9 295.9L648.8 294.4L645.7 290.7L649.0 286.7L652.2 285.9L656.7 277.9L660.8 277.5L660.6 275.7L662.4 274.2L663.9 275.8L669.6 270.2L679.5 270.2L681.7 266.9L684.6 266.0L687.4 262.4L684.7 262.4L682.4 258.7L676.5 259.6L675.9 258.4L674.3 259.2L673.7 257.8L668.7 256.7L668.8 252.5L671.2 251.4L669.8 247.5L670.7 246.6L669.3 246.2L669.7 244.0L665.3 244.2L663.4 245.2L663.9 246.5L660.3 244.3L655.9 244.2L653.5 245.5L652.2 244.0L650.0 244.3L648.8 242.0L650.7 241.1L648.6 239.1L649.1 238.0L656.9 234.5L653.7 230.5L659.8 228.7L661.1 226.8L664.2 227.2L662.5 224.8L664.6 225.2L664.3 224.1L666.4 224.2L666.7 223.0L671.9 228.0L679.5 228.9L679.5 228.9ZM675.7 237.2L669.2 237.8L669.2 239.9L671.8 241.6L670.9 242.9L675.2 243.6L674.9 241.0L676.3 240.8L675.0 240.2L675.4 237.4L675.7 237.2Z" fill="#A2A2A2" stroke="#D8D8D8" stroke-width="1.65" stroke-linejoin="round" vector-effect="non-scaling-stroke"/>
        <g id="Centre_3"><circle id="Centre_130000" cx="664.1" cy="256.2" r="7" fill="white"/></g>
      </g>
      <g id="140000-山西省">
        <path id="140000-山西省_2" fill-rule="evenodd" clip-rule="evenodd" d="M570.7 320.7L577.2 320.4L582.1 317.4L588.4 316.7L592.0 313.3L595.8 313.3L595.9 310.0L606.7 310.8L619.9 304.1L619.3 301.3L620.5 301.0L621.7 293.0L619.0 291.1L617.7 287.9L621.1 286.6L621.4 285.2L622.5 285.6L622.6 281.1L628.4 273.1L626.2 272.7L627.0 271.9L623.9 265.9L619.5 264.5L619.7 261.2L620.7 258.9L624.2 257.1L623.4 253.8L627.6 251.5L629.5 252.7L633.5 250.8L635.5 244.9L633.1 243.8L633.0 240.6L630.3 240.7L625.8 238.6L627.0 237.2L628.5 237.7L628.7 235.9L635.2 233.6L631.9 233.3L631.6 230.1L629.4 228.0L628.3 231.1L625.1 232.2L624.3 231.4L620.7 233.9L612.9 233.9L608.5 237.0L604.4 235.2L602.2 235.9L596.9 242.8L596.3 245.4L589.9 245.1L587.7 248.5L584.6 249.0L586.0 250.5L584.3 254.1L581.9 255.6L580.0 263.2L574.5 267.3L574.6 270.8L577.5 273.4L578.2 276.5L576.0 278.4L576.6 280.6L571.9 284.7L571.9 289.8L573.3 291.2L572.4 297.4L574.5 305.3L568.7 316.6L569.5 320.6L570.7 320.7Z" fill="#A2A2A2" stroke="#D8D8D8" stroke-width="1.65" stroke-linejoin="round" vector-effect="non-scaling-stroke"/>
        <g id="Centre_4"><circle id="Centre_140000" cx="600.6" cy="275.9" r="7" fill="white"/></g>
      </g>
      <g id="150000-内蒙古自治区">
        <path id="150000-内蒙古自治区_2" fill-rule="evenodd" clip-rule="evenodd" d="M401.2 209.7L409.5 226.1L406.6 229.3L410.9 234.2L415.5 236.6L415.5 241.6L419.8 238.6L421.4 240.9L421.3 239.5L423.9 238.3L425.3 239.7L426.3 237.1L431.4 237.1L432.8 235.8L438.3 236.4L439.9 238.6L438.8 244.9L434.4 248.9L429.3 250.9L434.1 251.1L439.5 253.4L442.5 257.3L446.9 257.0L446.6 262.4L448.2 263.5L451.6 262.3L452.7 265.7L458.3 267.1L462.2 263.6L459.3 260.9L467.3 258.2L474.3 260.0L478.8 256.5L485.4 254.2L488.5 254.6L487.8 256.4L489.5 260.7L484.9 265.9L479.0 269.6L480.4 273.1L478.1 274.9L478.5 277.4L482.0 278.4L488.2 283.3L508.9 276.6L510.8 264.4L512.6 260.5L515.1 256.8L517.0 256.8L517.0 255.1L520.1 254.8L521.4 253.2L523.8 253.1L523.8 255.4L526.0 257.9L518.9 268.6L524.9 270.9L528.2 270.4L531.1 273.2L538.7 275.1L539.2 277.1L549.6 276.0L550.2 270.7L552.0 272.4L554.0 270.9L552.3 268.3L554.1 264.9L566.8 254.3L566.7 252.0L567.5 252.8L571.2 251.6L570.4 249.1L573.6 251.0L575.6 249.9L577.0 251.5L581.0 247.7L584.6 246.4L583.7 249.6L587.4 248.7L589.9 245.1L596.3 245.4L596.9 242.8L602.2 235.9L604.4 235.2L608.5 237.0L612.9 233.9L616.2 233.1L617.1 234.4L619.8 234.1L624.3 231.4L625.1 232.2L628.3 231.1L629.4 228.0L628.4 225.4L624.9 223.0L627.9 220.9L625.8 218.4L628.2 216.6L631.2 216.8L630.8 212.8L635.5 210.0L636.2 207.8L640.7 208.2L641.8 211.8L640.5 215.4L645.6 215.7L648.2 215.2L647.8 213.7L655.0 210.3L659.0 212.6L662.1 209.5L669.3 209.7L670.7 208.1L669.2 206.6L670.9 206.7L671.1 203.7L678.1 202.9L679.3 200.9L683.8 200.7L687.4 204.1L688.0 205.3L686.8 206.3L688.7 207.2L688.9 209.1L691.5 208.8L690.7 209.3L692.2 211.9L689.2 213.5L693.0 219.6L699.8 218.8L705.1 220.3L708.3 216.3L706.3 213.0L707.5 208.8L705.3 207.1L709.1 204.6L710.8 206.5L714.1 207.2L718.1 214.8L723.2 209.1L729.2 207.0L731.9 207.3L736.2 204.4L739.3 203.9L740.7 205.1L743.9 201.7L750.4 202.1L751.2 201.1L749.6 200.0L750.8 199.8L756.7 202.0L761.9 200.6L761.1 200.2L762.2 198.3L766.6 198.4L768.0 193.2L762.6 191.2L765.5 189.3L762.3 183.4L763.0 181.6L759.2 178.4L759.1 176.3L753.0 179.3L747.4 179.4L747.4 176.2L745.2 174.7L745.6 171.9L743.8 169.8L746.2 164.6L744.9 164.3L745.1 162.2L742.8 161.1L742.2 158.4L737.6 157.4L739.9 155.7L739.1 153.8L740.2 153.5L746.1 157.0L748.6 155.4L749.5 157.4L752.9 158.7L753.3 153.3L756.8 153.1L758.5 151.0L755.9 146.0L764.1 144.7L763.9 141.7L762.6 142.6L762.9 140.8L759.7 139.9L761.2 140.9L760.8 142.3L755.8 143.7L754.2 140.2L752.5 140.0L753.5 138.5L750.2 137.6L747.4 134.2L749.7 131.3L757.3 128.0L759.1 125.4L762.9 124.2L771.9 116.9L775.0 122.6L774.3 123.9L775.8 123.0L775.4 116.7L779.1 108.0L784.6 107.0L785.2 102.8L783.1 99.6L784.4 99.4L783.8 94.7L785.7 93.0L784.7 92.4L787.2 90.6L788.3 87.3L792.3 85.0L791.2 82.0L794.4 79.9L795.2 77.1L785.4 67.2L782.4 66.5L778.9 71.2L775.7 72.0L773.9 71.1L772.8 72.9L770.5 71.6L766.2 72.3L763.3 70.6L759.7 72.7L753.7 71.9L748.4 59.1L750.5 55.9L746.3 55.2L745.9 53.5L742.1 51.4L737.7 55.3L734.9 52.5L728.7 49.8L734.2 45.9L737.2 41.8L732.9 36.9L724.5 37.6L716.6 45.0L713.0 46.6L713.6 49.9L718.9 48.9L722.6 50.8L721.2 54.4L723.4 57.3L721.6 61.2L713.9 65.3L712.1 70.5L709.5 72.9L709.6 74.9L701.0 86.2L704.2 86.7L704.1 89.8L700.6 92.6L693.5 93.4L683.0 99.8L667.9 94.6L655.2 115.2L655.5 119.1L651.4 120.7L652.1 124.2L657.1 127.7L661.7 124.8L669.0 124.5L677.3 128.3L683.2 122.8L693.8 123.3L696.7 126.6L701.7 128.3L702.0 130.1L710.0 135.4L713.1 139.8L712.9 143.2L705.4 144.0L698.9 141.4L697.2 142.6L690.5 141.8L682.6 144.8L677.9 143.9L677.3 147.1L669.7 146.8L666.1 148.1L661.7 152.8L661.9 155.6L660.3 156.8L648.7 161.1L637.1 161.4L630.8 167.7L623.8 170.9L612.7 169.8L607.0 166.7L600.9 166.6L597.5 168.5L592.2 177.5L598.3 183.2L599.3 186.7L585.8 192.5L577.2 200.8L560.9 206.7L535.9 207.9L512.3 216.8L502.3 222.7L496.0 222.0L496.3 218.9L487.6 220.5L481.8 219.7L472.8 216.3L464.5 215.5L461.3 211.8L449.2 209.9L442.2 209.9L431.6 212.1L402.6 209.8L401.2 209.7Z" fill="#A2A2A2" stroke="#D8D8D8" stroke-width="1.65" stroke-linejoin="round" vector-effect="non-scaling-stroke"/>
        <g id="Centre_5"><circle id="Centre_150000" cx="632.7" cy="179.2" r="7" fill="white"/></g>
      </g>
      <g id="210000-辽宁省">
        <path id="210000-辽宁省_2" fill-rule="evenodd" clip-rule="evenodd" d="M768.9 244.8L776.8 244.8L777.5 245.9L780.0 241.2L785.1 237.4L797.6 232.5L797.8 231.1L796.1 230.0L798.7 226.8L795.1 223.2L793.5 219.2L791.7 219.0L791.3 216.9L791.2 214.7L793.7 212.6L791.1 212.2L790.9 210.2L789.2 209.8L789.3 208.1L787.6 206.9L787.9 205.2L786.7 205.0L786.0 202.5L784.7 202.6L784.5 197.6L779.0 201.4L777.7 200.8L778.6 199.8L777.1 199.1L778.3 198.1L776.1 195.7L772.7 194.8L769.2 191.6L766.6 198.4L762.2 198.3L761.1 200.2L761.9 200.6L756.7 202.0L750.8 199.8L749.6 200.0L751.2 201.1L750.4 202.1L743.9 201.7L740.7 205.1L739.3 203.9L736.2 204.4L731.9 207.3L729.2 207.0L723.2 209.1L718.1 214.8L714.1 207.2L710.8 206.5L709.1 204.6L705.3 207.1L707.5 208.8L706.3 213.0L708.0 217.6L703.5 222.9L701.4 223.5L702.3 224.8L700.9 224.8L700.1 226.8L703.3 229.2L705.2 229.0L706.3 231.0L710.8 231.1L712.2 235.7L713.8 236.1L715.5 239.3L724.8 236.6L726.5 232.9L729.4 230.0L732.4 229.6L731.4 228.1L733.6 227.3L739.8 228.3L743.6 227.4L745.7 230.6L748.5 230.9L750.0 233.1L749.5 235.1L745.9 236.9L746.7 238.6L743.5 241.3L740.4 242.0L739.2 245.6L736.0 246.5L736.7 249.1L740.4 250.6L743.4 249.6L741.5 251.0L742.2 253.7L741.6 252.6L740.5 254.3L738.4 253.8L738.0 255.0L734.4 255.7L735.2 258.6L743.5 256.8L742.1 255.6L742.9 254.7L746.5 255.5L745.5 254.5L748.5 254.3L749.9 252.9L749.2 252.1L756.6 248.0L768.7 245.0L768.9 244.8Z" fill="#A2A2A2" stroke="#D8D8D8" stroke-width="1.65" stroke-linejoin="round" vector-effect="non-scaling-stroke"/>
        <g id="Centre_6"><circle id="Centre_210000" cx="753.6" cy="222.7" r="7" fill="white"/></g>
      </g>
      <g id="220000-吉林省">
        <path id="220000-吉林省_2" fill-rule="evenodd" clip-rule="evenodd" d="M847.9 211.9L849.8 211.2L850.4 205.7L852.1 203.5L856.4 205.5L856.2 208.1L858.7 210.5L859.8 209.6L861.5 212.5L860.6 208.9L858.2 207.9L867.6 205.4L867.0 204.1L869.5 197.2L863.6 197.8L860.4 194.9L857.6 194.4L856.7 188.5L853.1 191.4L851.2 188.5L848.6 190.6L842.2 191.1L842.1 194.4L837.5 194.9L835.4 191.9L835.7 190.2L834.0 189.6L831.6 185.6L831.6 182.3L830.0 180.2L827.5 182.5L825.9 182.4L826.6 185.6L822.6 186.3L818.4 181.1L818.0 179.5L819.2 178.7L814.1 177.4L812.4 178.5L811.3 174.6L812.7 172.9L810.8 170.0L805.4 168.0L801.0 169.4L797.8 168.9L793.5 165.9L793.3 163.5L789.8 163.7L789.0 165.0L785.4 165.0L782.8 162.6L782.5 164.0L775.8 163.7L770.2 158.5L771.0 157.5L769.6 156.1L770.5 154.9L769.2 150.8L759.5 150.6L756.8 153.1L753.3 153.3L752.9 158.7L749.5 157.4L748.6 155.4L746.1 157.0L743.0 154.6L739.1 153.8L739.9 155.7L737.6 157.4L742.2 158.4L742.8 161.1L745.1 162.2L744.9 164.3L746.2 164.6L743.8 169.8L745.6 171.9L745.2 174.7L747.4 176.2L747.4 179.4L753.0 179.3L759.1 176.3L759.2 178.4L763.0 181.6L762.3 183.4L765.5 189.3L762.6 191.2L766.7 193.2L769.2 191.6L772.7 194.8L776.1 195.7L778.3 198.1L777.1 199.1L778.6 199.8L777.7 200.8L779.0 201.4L784.5 197.6L784.7 202.6L786.0 202.5L786.7 205.0L787.9 205.2L787.6 206.9L789.3 208.1L789.2 209.8L790.9 210.2L791.1 212.2L793.7 212.6L791.1 214.9L791.7 219.0L793.5 219.2L795.1 223.2L798.7 226.8L796.1 230.6L802.3 230.5L803.2 228.2L808.5 224.6L809.1 220.3L813.3 218.5L817.9 223.5L827.8 224.8L829.4 226.0L831.8 223.1L827.7 216.7L839.8 217.1L843.1 214.7L843.2 212.2L844.8 211.1L847.5 212.1L847.9 211.9Z" fill="#A2A2A2" stroke="#D8D8D8" stroke-width="1.65" stroke-linejoin="round" vector-effect="non-scaling-stroke"/>
        <g id="Centre_7"><circle id="Centre_220000" cx="801.0" cy="190.6" r="7" fill="white"/></g>
      </g>
      <g id="230000-黑龙江省">
        <path id="230000-黑龙江省_2" fill-rule="evenodd" clip-rule="evenodd" d="M763.9 151.6L769.2 150.8L770.5 154.9L769.6 156.1L771.0 157.5L770.2 158.5L775.8 163.7L782.5 164.0L782.8 162.6L785.4 165.0L789.0 165.0L789.8 163.7L793.3 163.5L793.5 165.9L797.8 168.9L801.0 169.4L805.4 168.0L810.8 170.0L812.7 172.9L811.3 174.6L812.4 178.5L814.1 177.4L819.2 178.7L818.0 179.5L818.4 181.1L822.6 186.3L826.6 185.6L825.9 182.4L827.5 182.5L830.0 180.2L831.6 182.3L831.6 185.6L834.0 189.6L835.7 190.2L835.4 191.9L837.5 194.9L842.1 194.4L842.2 191.1L848.6 190.6L851.2 188.5L853.1 191.4L856.7 188.5L857.6 194.4L860.4 194.9L863.6 197.8L865.7 196.9L867.3 198.2L869.3 197.1L868.0 196.6L869.1 189.1L866.0 179.0L864.0 176.8L871.0 175.2L875.9 169.9L890.1 175.2L892.4 173.7L892.4 169.1L896.6 166.2L896.5 163.0L899.2 161.4L899.5 158.0L902.1 156.7L902.6 154.4L901.2 153.2L903.3 150.8L903.9 145.4L906.0 143.5L905.3 140.0L910.5 137.7L913.2 133.9L910.1 129.6L911.7 125.2L917.2 122.4L905.3 123.1L896.6 127.1L891.1 126.8L887.0 129.9L884.9 129.7L883.6 133.3L881.1 132.5L870.8 133.8L868.9 132.4L862.7 132.8L861.3 129.4L858.3 126.5L860.6 123.5L859.4 120.1L857.5 120.2L856.3 118.3L858.1 114.0L852.2 114.1L848.1 111.2L845.2 107.1L843.0 106.9L842.3 104.8L836.6 105.7L835.6 104.1L832.2 103.6L831.9 101.8L824.4 102.5L819.4 101.5L815.5 97.6L815.0 93.8L816.3 90.9L812.6 89.1L812.0 82.2L806.8 77.0L807.6 72.7L806.3 72.6L806.6 73.9L805.4 73.3L806.5 71.2L805.0 70.7L805.5 69.0L803.4 67.8L804.1 66.0L800.4 61.9L801.6 58.6L798.2 57.4L799.9 55.8L798.5 55.6L798.8 54.2L796.0 51.0L793.5 49.9L795.5 47.6L793.5 47.7L791.6 45.2L789.6 45.9L790.4 43.5L788.6 41.9L787.5 42.5L782.2 39.7L778.8 40.4L778.6 41.5L761.6 33.4L760.0 34.3L756.9 33.1L750.9 34.9L745.5 35.1L744.4 34.0L732.9 36.9L737.2 41.8L734.2 45.9L728.7 49.8L734.9 52.5L737.7 55.3L742.1 51.4L745.9 53.5L746.3 55.2L750.5 55.9L748.4 59.1L753.7 71.9L759.7 72.7L763.3 70.6L766.2 72.3L770.5 71.6L772.8 72.9L773.9 71.1L775.7 72.0L778.9 71.2L782.4 66.5L785.4 67.2L795.2 77.1L794.4 79.9L791.2 82.0L792.3 85.0L788.3 87.3L787.2 90.6L784.7 92.4L785.7 93.0L783.8 94.7L784.4 99.4L783.1 99.6L785.2 102.8L784.6 107.0L779.1 108.0L775.4 116.7L775.8 123.0L774.3 123.9L775.0 122.6L771.9 116.9L762.9 124.2L759.1 125.4L757.3 128.0L749.7 131.3L747.4 134.2L750.2 137.6L753.5 138.5L752.5 140.0L754.2 140.2L756.1 143.9L758.0 143.7L758.7 142.1L760.8 142.3L761.2 140.9L759.7 139.9L762.9 140.8L762.6 142.6L763.9 141.7L764.1 144.7L755.9 146.0L758.5 151.0L763.9 151.6L763.9 151.6Z" fill="#A2A2A2" stroke="#D8D8D8" stroke-width="1.65" stroke-linejoin="round" vector-effect="non-scaling-stroke"/>
        <g id="Centre_8"><circle id="Centre_230000" cx="818.6" cy="126.2" r="7" fill="white"/></g>
      </g>
      <g id="310000-上海市">
        <path id="310000-上海市_2" fill-rule="evenodd" clip-rule="evenodd" d="M733.9 373.8L735.3 373.9L735.3 376.5L736.9 376.1L739.5 378.8L745.6 376.6L749.5 377.2L750.3 375.9L750.1 373.7L746.3 369.5L740.6 366.5L737.2 368.5L736.6 371.7L733.8 372.7L733.9 373.8ZM750.1 364.9L740.3 361.2L737.3 362.9L741.1 365.9L748.8 367.7L750.4 366.7L750.1 364.9Z" fill="#A2A2A2" stroke="#D8D8D8" stroke-width="1.65" stroke-linejoin="round" vector-effect="non-scaling-stroke"/>
        <g id="Centre_9"><circle id="Centre_310000" cx="752.1" cy="366.0" r="4.5" fill="white"/></g>
      </g>
      <g id="320000-江苏省">
        <path id="320000-江苏省_2" fill-rule="evenodd" clip-rule="evenodd" d="M677.8 320.2L675.5 322.1L674.0 317.8L669.5 313.8L664.0 315.0L662.8 317.3L662.9 319.0L666.4 321.2L672.4 322.8L673.3 326.2L674.9 327.2L682.8 328.4L684.8 330.5L684.8 333.2L691.3 332.9L687.8 340.7L689.4 342.0L692.2 341.2L693.6 344.6L692.7 346.4L694.7 348.4L700.7 348.1L700.5 346.4L702.2 344.8L704.9 344.8L707.4 346.8L708.2 350.1L705.9 352.4L703.1 350.3L697.8 350.4L698.1 352.0L699.7 352.1L699.9 354.3L695.0 358.1L694.5 360.3L696.8 361.7L696.4 362.6L698.9 362.9L699.8 363.6L699.0 364.5L702.4 364.9L702.2 368.4L700.2 369.4L701.3 370.8L710.0 369.7L710.7 371.6L713.9 372.6L718.9 371.6L721.8 374.8L726.8 375.3L727.8 377.7L731.0 375.8L730.8 374.5L733.9 373.8L733.6 372.1L736.6 371.7L737.2 368.5L741.1 365.9L737.3 362.9L738.5 361.7L740.3 361.2L750.1 364.9L748.3 359.9L742.4 356.6L741.9 352.9L734.9 350.1L735.1 346.4L732.8 340.2L724.7 324.5L714.3 320.4L711.6 318.8L712.5 317.8L710.3 317.5L712.0 317.5L711.2 317.0L708.0 316.8L708.7 312.0L702.1 313.3L699.9 317.5L701.0 317.9L695.9 318.8L694.7 322.5L691.5 323.0L691.6 320.5L687.9 318.4L685.4 318.8L685.5 320.9L683.7 320.4L682.2 321.7L677.8 320.2L677.8 320.2Z" fill="#A2A2A2" stroke="#D8D8D8" stroke-width="1.65" stroke-linejoin="round" vector-effect="non-scaling-stroke"/>
        <g id="Centre_10"><circle id="Centre_320000" cx="724.6" cy="336.2" r="7" fill="white"/></g>
      </g>
      <g id="330000-浙江省">
        <path id="330000-浙江省_2" fill-rule="evenodd" clip-rule="evenodd" d="M695.4 413.6L699.8 413.3L701.1 414.3L699.9 418.1L701.3 418.8L702.6 425.1L708.1 425.5L713.4 421.9L715.8 426.9L723.4 425.0L726.3 428.9L727.6 428.7L730.0 424.2L729.1 422.9L731.3 420.1L733.8 418.4L737.5 419.3L734.6 417.6L735.6 415.6L738.6 416.4L742.1 412.6L744.2 413.2L745.2 411.0L743.0 407.6L746.6 404.6L744.2 400.4L749.5 401.9L750.1 394.4L747.7 393.4L752.3 389.8L746.1 388.6L740.9 383.2L736.8 381.1L739.5 378.1L736.9 376.1L735.3 376.5L735.3 373.9L730.8 374.5L731.0 375.8L727.8 377.7L726.8 375.3L721.8 374.8L718.9 371.6L715.1 371.7L711.5 379.4L708.3 380.0L710.8 383.4L707.6 384.7L702.6 384.4L702.8 389.9L700.4 392.8L689.3 400.6L690.2 403.6L694.3 406.2L696.1 413.1L695.4 413.6Z" fill="#A2A2A2" stroke="#D8D8D8" stroke-width="1.65" stroke-linejoin="round" vector-effect="non-scaling-stroke"/>
        <g id="Centre_11"><circle id="Centre_330000" cx="732.2" cy="408.4" r="7" fill="white"/></g>
      </g>
      <g id="340000-安徽省">
        <path id="340000-安徽省_2" fill-rule="evenodd" clip-rule="evenodd" d="M666.5 328.5L667.0 330.5L659.4 333.2L656.3 328.6L651.6 327.8L649.8 330.7L651.1 330.8L650.0 332.3L651.2 335.1L646.6 336.4L645.7 342.1L639.5 342.1L639.2 344.2L644.2 346.3L644.2 350.3L647.6 350.5L651.0 353.1L655.5 350.7L654.5 351.7L656.0 356.7L655.6 362.1L648.9 364.2L646.9 369.1L650.4 372.1L652.2 371.3L657.9 374.1L653.2 379.0L655.5 381.5L655.4 384.5L658.0 386.1L659.1 391.8L661.4 392.2L665.7 390.4L667.6 388.0L671.3 389.9L667.7 393.4L668.4 395.5L674.6 393.3L674.0 391.6L676.3 390.2L676.9 391.5L679.5 391.3L681.5 395.1L688.8 395.2L690.8 397.5L693.7 397.5L702.8 389.9L702.6 384.4L707.6 384.7L710.8 383.4L708.3 380.0L711.5 379.4L714.4 373.9L714.3 372.3L710.7 371.6L710.0 369.7L701.3 370.8L700.2 369.4L702.2 368.4L702.4 364.9L699.0 364.5L699.8 363.6L697.0 363.1L694.5 360.3L695.0 358.1L699.9 354.3L699.7 352.1L698.1 352.0L697.8 350.4L703.1 350.3L705.9 352.4L708.2 350.1L707.4 346.8L704.9 344.8L702.2 344.8L700.5 346.4L700.7 348.1L694.7 348.4L692.7 346.4L693.6 344.6L692.2 341.2L689.4 342.0L687.8 340.7L691.3 332.9L684.8 333.2L684.8 330.5L682.8 328.4L675.9 327.7L673.3 326.2L672.4 322.8L666.4 321.2L663.8 318.8L660.1 319.9L660.4 322.9L662.9 324.7L666.2 324.7L665.4 326.9L666.5 328.5L666.5 328.5Z" fill="#A2A2A2" stroke="#D8D8D8" stroke-width="1.65" stroke-linejoin="round" vector-effect="non-scaling-stroke"/>
        <g id="Centre_12"><circle id="Centre_340000" cx="676.4" cy="361.5" r="7" fill="white"/></g>
      </g>
      <g id="350000-福建省">
        <path id="350000-福建省_2" fill-rule="evenodd" clip-rule="evenodd" d="M703.4 458.2L703.6 457.1L701.7 456.7L703.1 455.7L702.1 454.6L704.5 455.1L703.8 456.0L705.4 456.4L705.1 457.6L705.4 454.9L707.5 455.7L709.2 454.5L705.6 452.8L706.8 451.7L708.8 452.4L709.0 451.0L710.4 451.3L710.1 452.3L711.8 452.9L712.2 451.9L712.5 453.3L713.7 451.5L715.2 452.4L716.6 451.6L715.5 448.9L713.7 451.4L710.8 449.5L712.7 448.7L714.7 444.4L712.9 442.3L718.3 439.8L715.9 436.7L712.7 436.3L714.0 434.9L717.2 435.9L718.3 434.0L720.1 434.1L716.4 437.5L721.2 435.9L720.0 432.9L722.7 432.2L723.6 429.7L726.3 428.9L723.4 425.0L715.8 426.9L713.4 421.9L708.1 425.5L702.6 425.1L701.3 418.8L699.9 418.1L701.1 414.3L699.8 413.3L695.2 413.6L693.5 414.6L694.1 416.4L686.3 418.5L684.4 420.6L681.0 418.1L677.2 419.7L676.0 422.3L673.4 422.5L675.1 428.4L671.8 431.5L667.7 432.0L665.7 433.9L666.5 440.2L665.2 439.7L663.6 441.2L663.2 442.9L664.8 443.7L659.2 447.0L660.0 448.1L658.2 449.1L657.3 454.1L655.0 455.5L655.8 459.2L661.0 460.9L663.3 459.8L665.4 463.3L669.8 462.7L668.9 464.1L672.6 468.7L671.5 470.1L672.3 472.7L675.5 476.4L677.1 476.5L681.7 474.6L682.8 472.4L690.3 467.4L688.7 465.5L689.8 463.6L691.6 464.3L695.8 463.0L697.3 464.1L700.0 460.8L697.9 460.0L703.1 459.4L702.1 458.7L703.4 458.3L703.4 458.2Z" fill="#A2A2A2" stroke="#D8D8D8" stroke-width="1.65" stroke-linejoin="round" vector-effect="non-scaling-stroke"/>
        <g id="Centre_13"><circle id="Centre_350000" cx="688.3" cy="443.5" r="7" fill="white"/></g>
      </g>
      <g id="360000-江西省">
        <path id="360000-江西省_2" fill-rule="evenodd" clip-rule="evenodd" d="M691.7 397.9L688.8 395.2L681.5 395.1L679.5 391.3L676.9 391.5L676.3 390.2L674.0 391.6L674.6 393.3L668.4 395.5L667.4 393.6L671.3 389.9L667.6 388.0L665.7 390.4L661.4 392.2L655.5 393.2L649.2 391.4L645.7 394.7L642.9 393.7L643.6 396.2L641.2 395.3L638.9 396.7L640.3 396.9L639.5 397.8L630.3 398.2L629.4 400.1L624.8 402.1L625.1 404.3L627.9 405.9L626.9 409.7L629.0 410.8L628.3 411.5L629.6 413.1L625.6 415.3L626.1 417.1L621.9 418.4L622.1 420.3L619.3 423.8L619.9 426.5L623.9 426.1L622.4 430.0L624.8 432.0L623.5 434.0L623.9 435.9L627.7 437.2L625.6 442.8L629.8 442.8L626.3 444.6L625.0 448.7L626.1 450.1L625.5 452.1L627.2 453.1L627.0 454.6L634.7 452.6L637.8 454.5L637.7 456.5L632.6 458.6L631.7 461.2L629.5 462.3L633.2 464.5L648.2 460.8L652.5 464.0L654.8 463.8L653.5 461.5L656.1 458.8L655.0 455.5L657.3 454.1L658.2 449.1L660.0 448.1L659.2 447.0L662.9 445.7L664.8 443.7L663.2 442.9L663.6 441.2L667.1 438.8L665.5 437.7L665.7 433.9L667.7 432.0L673.6 430.3L675.5 427.7L672.8 423.1L676.0 422.3L677.2 419.7L681.0 418.1L684.4 420.6L686.3 418.5L694.1 416.4L693.5 414.6L696.1 413.1L694.3 406.2L689.2 402.1L689.9 399.4L691.9 398.6L691.7 397.9Z" fill="#A2A2A2" stroke="#D8D8D8" stroke-width="1.65" stroke-linejoin="round" vector-effect="non-scaling-stroke"/>
        <g id="Centre_14"><circle id="Centre_360000" cx="653.2" cy="422.1" r="7" fill="white"/></g>
      </g>
      <g id="370000-山东省">
        <path id="370000-山东省_2" fill-rule="evenodd" clip-rule="evenodd" d="M662.9 319.0L664.0 315.0L669.5 313.8L674.0 317.8L675.5 322.1L678.7 319.8L681.4 321.6L685.5 320.9L685.4 318.8L687.9 318.4L691.6 320.5L691.5 323.0L694.7 322.5L695.9 318.8L701.0 317.9L699.9 317.5L702.1 313.3L708.1 311.8L710.1 312.6L714.4 304.9L718.4 304.2L718.4 302.4L719.8 303.1L720.5 300.7L724.1 299.3L721.2 297.2L722.1 295.7L724.9 295.9L723.8 298.1L730.2 297.1L729.8 293.1L731.8 292.0L732.5 293.6L733.9 292.1L734.1 290.9L732.0 289.8L734.8 290.5L742.6 287.0L741.5 287.6L744.0 288.6L743.6 287.4L749.1 285.2L751.6 287.1L756.8 286.4L757.4 284.5L755.7 284.4L755.9 283.0L757.9 282.2L757.1 280.6L759.1 279.3L751.1 278.2L750.8 276.5L742.4 277.9L739.6 275.0L737.1 275.6L735.8 273.4L729.7 271.6L722.2 273.4L722.6 275.5L716.6 278.0L717.3 279.7L715.1 281.6L708.8 281.7L706.8 279.2L704.5 279.5L702.7 275.4L703.9 273.7L707.6 273.5L708.0 270.4L706.0 271.1L702.0 266.2L697.7 266.1L696.6 267.4L686.4 263.5L679.5 270.2L669.6 270.2L663.9 275.8L662.4 274.2L660.6 275.7L660.8 277.5L656.7 277.9L652.2 285.9L649.0 286.7L647.0 288.7L645.7 290.7L648.6 294.0L649.0 296.3L646.6 301.3L658.6 296.4L657.8 298.6L648.9 302.6L646.9 306.0L641.9 307.8L638.4 312.8L640.0 314.0L644.7 314.1L645.2 315.9L647.9 316.5L649.9 320.1L656.8 319.3L660.9 320.3L662.3 319.2L662.9 319.0Z" fill="#A2A2A2" stroke="#D8D8D8" stroke-width="1.65" stroke-linejoin="round" vector-effect="non-scaling-stroke"/>
        <g id="Centre_15"><circle id="Centre_370000" cx="690.4" cy="293.2" r="7" fill="white"/></g>
      </g>
      <g id="410000-河南省">
        <path id="410000-河南省_2" fill-rule="evenodd" clip-rule="evenodd" d="M605.3 353.9L613.0 352.8L616.3 355.2L621.1 353.1L621.0 358.0L623.0 361.6L624.6 361.5L625.1 363.0L628.3 361.5L629.9 363.0L634.5 362.8L634.1 365.9L638.4 367.4L642.6 366.7L643.6 365.2L645.8 368.5L648.9 364.2L655.1 362.6L656.0 356.7L654.5 351.7L655.5 350.7L651.0 353.1L647.6 350.5L644.2 350.3L644.2 346.3L639.2 344.2L639.5 342.1L645.9 341.8L646.6 336.4L651.2 335.1L650.0 332.3L651.1 330.8L649.8 330.7L650.7 328.3L656.3 328.6L658.1 332.1L661.1 332.9L667.2 330.3L665.4 326.9L666.2 324.7L662.9 324.7L659.6 321.7L660.1 319.9L658.6 319.5L649.3 319.9L647.9 316.5L645.2 315.9L644.7 314.1L640.0 314.0L638.4 312.8L641.9 307.8L646.9 306.0L648.9 302.6L657.8 298.6L658.6 296.4L647.0 301.6L648.7 295.6L646.3 296.9L643.3 295.1L640.0 297.5L640.0 296.1L635.0 296.5L631.2 294.5L621.7 293.0L620.5 301.0L619.3 301.3L619.9 304.1L618.7 303.8L617.9 305.7L614.9 307.4L613.1 307.1L612.1 308.8L610.1 308.4L606.7 310.8L595.9 310.0L595.8 313.3L592.0 313.3L588.4 316.7L582.1 317.4L577.2 320.4L570.7 320.7L572.4 324.6L571.5 326.1L574.4 327.2L573.6 329.3L574.7 330.5L573.5 331.3L579.6 335.8L579.3 340.7L583.3 344.3L583.2 346.2L588.0 350.5L589.0 349.8L596.8 353.6L604.2 353.8L605.3 353.9Z" fill="#A2A2A2" stroke="#D8D8D8" stroke-width="1.65" stroke-linejoin="round" vector-effect="non-scaling-stroke"/>
        <g id="Centre_16"><circle id="Centre_410000" cx="620.2" cy="330.9" r="7" fill="white"/></g>
      </g>
      <g id="420000-湖北省">
        <path id="420000-湖北省_2" fill-rule="evenodd" clip-rule="evenodd" d="M580.2 341.9L578.9 340.7L575.1 343.1L573.3 340.8L569.8 342.2L559.4 340.6L556.8 342.4L561.9 343.6L561.8 346.4L564.7 346.3L567.1 348.0L567.8 350.0L565.0 351.3L559.5 350.5L557.5 354.9L559.3 357.7L558.8 363.3L560.9 363.6L560.8 365.9L566.5 367.9L567.7 371.5L566.0 376.7L563.3 375.3L555.7 381.1L554.8 379.0L552.6 380.5L551.2 378.6L547.9 380.9L546.2 379.5L544.6 381.2L542.6 380.8L542.3 382.4L544.8 384.2L544.0 389.3L542.0 389.9L543.9 391.8L546.0 389.8L546.5 392.1L549.5 393.4L549.8 397.3L551.8 396.3L553.0 399.6L554.9 400.3L557.0 394.6L558.2 393.3L561.0 393.5L561.9 391.5L566.7 391.2L570.5 393.5L573.3 392.4L574.4 391.5L572.3 389.5L573.1 388.5L572.2 387.5L575.4 387.9L577.4 386.6L583.2 387.9L585.5 389.7L591.7 390.0L595.6 393.2L598.3 393.6L599.1 395.6L601.3 394.0L605.2 394.5L608.4 391.8L609.0 393.4L610.3 392.1L608.6 394.5L609.2 396.4L610.8 395.7L612.2 396.8L618.7 391.1L618.4 393.6L620.2 393.5L621.4 395.0L619.7 395.8L621.6 397.0L619.4 399.8L620.7 400.1L620.8 402.3L623.9 403.0L626.5 400.5L629.4 400.1L630.3 398.2L639.5 397.8L640.3 396.9L638.9 396.7L641.2 395.3L643.6 396.2L642.9 393.7L645.7 394.7L649.2 391.4L655.5 393.2L659.1 391.8L658.0 386.1L655.4 384.5L655.5 381.5L653.2 379.0L654.8 376.3L658.1 374.9L654.8 372.1L653.4 372.6L651.5 371.1L650.4 372.1L647.0 368.2L645.0 368.4L643.6 365.2L642.6 366.7L638.4 367.4L634.1 365.9L634.5 362.8L629.9 363.0L628.3 361.5L625.1 363.0L621.5 359.4L621.1 353.1L616.3 355.2L613.0 352.8L599.4 354.5L589.0 349.8L588.0 350.5L583.2 346.2L583.3 344.3L580.8 341.7L580.2 341.9Z" fill="#A2A2A2" stroke="#D8D8D8" stroke-width="1.65" stroke-linejoin="round" vector-effect="non-scaling-stroke"/>
        <g id="Centre_17"><circle id="Centre_420000" cx="600.4" cy="374.4" r="7" fill="white"/></g>
      </g>
      <g id="430000-湖南省">
        <path id="430000-湖南省_2" fill-rule="evenodd" clip-rule="evenodd" d="M597.0 460.2L599.0 458.8L599.1 454.7L606.2 455.6L608.1 458.6L609.5 458.7L611.3 458.4L610.8 455.6L611.8 454.9L609.1 453.0L610.1 453.6L614.9 450.9L620.1 453.7L625.5 452.1L626.1 450.1L625.0 448.7L626.3 444.6L629.8 442.8L625.6 442.8L627.7 437.2L623.9 435.9L623.5 434.0L624.8 432.0L622.4 430.0L623.9 426.1L619.9 426.5L619.3 423.8L622.1 420.3L621.9 418.4L626.1 417.1L625.6 415.3L629.6 413.1L628.3 411.5L629.0 410.8L626.9 409.7L627.9 405.9L624.6 402.7L620.8 402.3L620.7 400.1L619.4 399.8L621.6 397.0L619.7 395.8L621.4 395.0L620.2 393.5L618.4 393.6L618.7 391.1L612.2 396.8L610.8 395.7L609.2 396.4L608.6 394.5L610.3 392.1L609.0 393.4L608.3 391.9L605.2 394.5L601.3 394.0L599.1 395.6L598.3 393.6L595.6 393.2L591.7 390.0L585.5 389.7L583.2 387.9L577.4 386.6L575.4 387.9L572.2 387.5L573.1 388.5L572.3 389.5L574.4 391.5L570.5 393.5L566.7 391.2L561.9 391.5L560.3 393.7L558.2 393.3L554.6 398.9L555.4 405.5L553.9 406.9L555.7 407.8L555.1 411.1L556.8 412.1L555.8 416.3L558.2 421.6L556.0 423.5L553.8 423.0L549.0 427.7L551.2 428.7L552.4 427.6L558.6 427.4L559.9 430.0L558.2 430.6L560.6 432.5L556.2 433.1L558.0 435.4L556.2 438.0L559.0 438.3L559.0 441.6L562.9 442.7L562.4 444.1L564.2 444.2L563.7 442.6L566.2 440.2L570.5 443.4L575.4 438.7L578.7 439.9L580.6 438.3L585.2 440.0L584.0 444.1L585.0 445.3L588.4 445.5L585.9 447.2L586.3 449.8L581.7 454.2L581.4 456.6L583.3 457.0L585.7 454.5L588.6 456.3L588.6 460.8L590.3 461.1L592.3 459.4L595.9 459.8L597.0 460.2Z" fill="#A2A2A2" stroke="#D8D8D8" stroke-width="1.65" stroke-linejoin="round" vector-effect="non-scaling-stroke"/>
        <g id="Centre_18"><circle id="Centre_430000" cx="591.8" cy="421.4" r="7" fill="white"/></g>
      </g>
      <g id="440000-广东省">
        <path id="440000-广东省_2" fill-rule="evenodd" clip-rule="evenodd" d="M620.9 492.0L622.4 489.7L621.0 489.7L623.5 488.3L622.5 486.0L625.8 489.4L633.0 487.7L634.9 489.7L636.5 489.2L636.3 487.3L635.0 487.1L637.9 485.6L638.5 488.1L640.6 488.6L645.1 485.3L651.0 487.4L651.5 486.2L650.4 486.2L652.1 484.8L654.8 486.4L661.9 483.9L665.0 484.1L665.9 481.6L669.6 480.8L670.8 477.1L675.5 475.5L673.4 474.7L671.9 471.9L672.6 468.7L668.9 464.1L669.8 462.7L665.4 463.3L663.3 459.8L661.0 460.9L660.2 459.8L654.5 459.4L653.5 461.5L654.8 463.8L652.5 464.0L648.2 460.8L633.2 464.5L629.2 461.9L631.7 461.2L632.6 458.6L635.1 457.0L637.7 456.5L637.8 454.5L634.7 452.6L627.0 454.6L626.4 452.1L620.1 453.7L614.6 450.9L610.1 453.6L609.1 453.0L611.8 454.9L610.8 455.6L611.3 458.4L609.5 458.7L608.1 458.6L606.2 455.6L599.1 454.7L599.0 458.8L595.7 460.8L597.7 465.3L595.1 466.6L596.1 469.6L594.3 471.8L592.0 471.3L591.6 473.7L589.7 473.8L588.5 475.7L588.0 477.9L589.3 480.9L588.3 482.7L584.1 485.3L579.7 486.2L578.9 487.1L580.4 489.5L579.0 490.7L574.3 490.2L575.1 493.8L569.5 493.6L568.5 496.0L566.6 495.9L566.8 498.4L568.5 498.8L566.5 499.6L565.6 505.2L569.7 512.8L575.6 512.6L578.3 510.3L575.8 506.3L573.2 505.6L572.7 504.2L576.0 502.0L584.5 499.6L597.9 498.3L597.6 497.0L600.2 496.2L603.4 497.3L604.7 496.3L607.7 496.9L609.7 495.1L611.8 496.1L613.9 492.8L616.7 495.9L621.1 493.7L620.6 492.1L620.9 492.0Z" fill="#A2A2A2" stroke="#D8D8D8" stroke-width="1.65" stroke-linejoin="round" vector-effect="non-scaling-stroke"/>
        <g id="Centre_19"><circle id="Centre_440000" cx="615.0" cy="470.6" r="7" fill="white"/></g>
      </g>
      <g id="450000-广西壮族自治区">
        <path id="450000-广西壮族自治区_2" fill-rule="evenodd" clip-rule="evenodd" d="M559.4 442.0L557.6 445.7L554.1 444.6L551.3 445.6L553.9 445.7L553.3 448.3L548.5 446.7L547.9 450.6L543.9 447.5L541.4 448.5L540.9 451.5L536.1 452.3L534.6 449.8L532.1 450.9L528.2 445.7L525.1 447.7L525.4 450.3L514.5 453.1L515.0 455.5L513.2 457.0L502.2 451.9L496.2 456.2L493.5 454.6L493.1 455.5L496.1 459.8L496.8 458.1L501.3 458.9L503.5 463.4L513.9 463.7L515.9 466.4L515.5 470.1L513.7 471.5L511.7 470.4L509.0 471.7L509.8 472.7L507.6 473.6L508.4 475.7L512.5 477.7L516.1 477.1L519.0 478.9L521.1 477.9L525.4 479.9L521.9 483.8L523.8 486.2L524.1 489.8L528.2 490.2L528.5 491.7L532.6 493.0L533.7 494.7L540.1 494.5L543.6 496.3L545.3 495.4L545.3 496.6L550.6 494.8L557.7 496.6L556.4 497.7L557.9 498.6L563.3 498.4L564.3 497.1L566.8 498.4L566.1 496.5L568.5 496.0L568.8 494.0L575.1 493.8L574.3 490.2L579.0 490.7L580.4 489.5L578.9 487.1L579.7 486.2L584.1 485.3L588.3 482.7L589.3 480.9L588.0 477.9L588.5 475.7L589.7 473.8L591.6 473.7L592.0 471.3L594.3 471.8L595.7 470.1L595.1 466.6L597.6 464.7L595.6 461.6L597.0 460.2L592.3 459.4L590.3 461.1L588.3 460.5L588.6 456.3L587.2 454.9L585.7 454.5L583.3 457.0L581.4 456.6L581.7 454.2L586.3 449.8L585.9 447.2L588.4 445.5L585.0 445.3L584.0 444.1L585.2 440.0L580.6 438.3L578.7 439.9L575.4 438.7L570.5 443.4L566.2 440.2L563.7 442.6L563.7 444.3L561.5 441.9L559.8 442.4L559.4 442.0Z" fill="#A2A2A2" stroke="#D8D8D8" stroke-width="1.65" stroke-linejoin="round" vector-effect="non-scaling-stroke"/>
        <g id="Centre_20"><circle id="Centre_450000" cx="552.4" cy="468.7" r="7" fill="white"/></g>
      </g>
      <g id="460000-海南省">
        <path id="460000-海南省_2" fill-rule="evenodd" clip-rule="evenodd" d="M572.3 515.0L561.2 515.6L552.5 521.4L553.1 531.0L566.3 535.5L568.6 535.1L569.0 533.5L572.9 533.3L575.2 530.9L578.7 530.6L580.8 523.7L586.0 520.4L585.7 518.7L584.4 515.8L580.4 513.9L572.8 514.5L572.3 515.0ZM629.3 647.7L635.7 647.4L638.3 644.8L636.4 644.1L629.6 647.3L629.3 647.7Z" fill="#A2A2A2" stroke="#D8D8D8" stroke-width="1.65" stroke-linejoin="round" vector-effect="non-scaling-stroke"/>
        <g id="Centre_21"><circle id="Centre_460000" cx="568.3" cy="523.9" r="7" fill="white"/></g>
      </g>
      <g id="500000-重庆市">
        <path id="500000-重庆市_2" fill-rule="evenodd" clip-rule="evenodd" d="M515.5 407.1L517.2 406.9L516.6 403.0L519.1 405.6L518.0 407.7L519.9 408.3L520.5 406.2L522.0 406.0L521.3 404.2L523.5 404.0L523.9 402.6L526.4 402.9L527.0 404.3L528.8 403.2L528.9 398.7L533.7 398.6L535.4 401.9L538.1 400.3L541.4 400.5L541.9 406.0L546.1 406.9L545.5 410.7L546.7 410.8L547.2 408.6L548.2 409.6L547.7 412.3L552.6 413.1L553.5 409.9L555.7 407.8L553.9 406.9L555.3 405.8L554.4 403.6L555.6 401.4L553.0 399.6L551.8 396.3L549.8 397.3L549.5 393.4L546.5 392.1L546.0 389.8L543.9 391.8L542.0 389.9L544.0 389.3L544.8 384.2L542.3 382.4L542.6 380.8L544.6 381.2L546.2 379.5L547.9 380.9L551.2 378.6L552.6 380.5L554.8 379.0L555.7 381.1L563.3 375.3L566.0 376.7L567.7 371.5L566.5 367.9L560.8 365.9L560.9 363.6L554.5 363.4L551.7 360.3L542.1 356.5L542.8 358.0L540.1 359.8L544.1 364.1L539.2 366.6L539.2 368.8L537.1 370.0L537.5 372.8L535.8 373.7L536.6 374.8L534.6 376.4L533.1 375.1L529.6 375.7L528.8 377.1L530.1 378.5L524.0 386.8L519.7 386.9L517.3 382.8L513.0 384.5L511.7 382.6L507.2 381.1L506.3 383.5L505.0 383.2L505.5 384.1L503.9 384.8L506.8 386.7L506.6 388.4L501.1 393.2L502.6 396.2L506.2 396.6L507.7 401.4L513.1 401.9L514.9 406.7L515.5 407.1Z" fill="#A2A2A2" stroke="#D8D8D8" stroke-width="1.65" stroke-linejoin="round" vector-effect="non-scaling-stroke"/>
        <g id="Centre_22"><circle id="Centre_500000" cx="536.2" cy="386.2" r="7" fill="white"/></g>
      </g>
      <g id="510000-四川省">
        <path id="510000-四川省_2" fill-rule="evenodd" clip-rule="evenodd" d="M449.5 421.8L449.1 424.0L452.1 425.9L452.4 427.9L454.0 427.4L452.6 429.5L455.7 432.2L455.7 434.2L458.4 436.6L461.8 436.4L467.5 433.0L469.3 435.0L472.9 433.2L473.5 430.9L471.4 426.3L471.0 421.4L471.7 420.0L474.2 419.9L478.4 415.3L479.2 413.0L477.6 412.0L479.3 409.7L481.0 410.2L483.2 408.7L481.9 405.9L482.7 404.1L490.1 404.9L488.0 406.0L488.3 408.5L490.7 410.0L490.6 411.6L488.7 412.4L492.3 415.2L496.3 414.4L498.5 412.1L501.2 413.6L501.9 417.4L504.4 416.7L506.0 418.1L514.9 416.6L513.4 412.2L509.3 412.3L508.3 409.8L505.9 409.4L505.6 406.9L509.0 406.0L510.0 403.8L515.5 407.7L513.1 401.9L507.7 401.4L506.2 396.6L503.1 396.5L501.5 394.4L500.9 392.6L506.6 388.4L506.8 386.7L503.9 384.8L507.6 381.0L512.1 382.9L513.0 384.5L517.3 382.8L519.7 386.9L524.0 386.7L530.1 378.5L528.8 377.1L529.6 375.7L533.1 375.1L534.6 376.4L536.6 374.8L535.8 373.7L537.5 372.8L537.1 370.0L539.2 368.8L539.2 366.6L544.1 364.1L540.1 359.8L541.7 359.5L541.3 358.3L542.8 358.0L541.7 356.8L543.6 355.8L539.9 355.3L536.3 357.2L532.2 353.6L529.2 353.3L528.9 351.7L525.9 353.2L524.1 351.6L523.9 349.2L519.5 348.8L515.3 350.6L511.4 349.2L510.4 347.1L504.5 349.5L502.9 346.3L501.7 347.1L502.6 349.1L499.2 350.7L492.2 350.1L487.7 347.8L487.7 346.3L489.5 345.3L488.3 344.9L487.9 341.2L489.4 340.9L486.9 339.9L486.4 337.1L484.7 336.0L478.1 336.2L478.1 334.4L476.0 335.3L473.6 334.5L473.9 330.7L470.6 327.5L466.6 329.9L467.2 330.8L460.7 332.5L464.9 338.3L464.7 339.6L461.3 341.2L461.4 342.7L460.4 341.8L456.7 344.2L456.0 342.1L458.3 339.7L457.0 337.6L454.7 340.6L455.6 342.0L454.3 344.5L452.5 342.8L451.2 343.8L450.2 342.3L448.0 342.9L448.0 347.1L449.4 348.2L448.4 350.5L445.5 351.3L442.6 350.3L442.0 352.3L438.9 349.2L437.2 349.4L436.5 351.3L435.3 350.8L435.5 348.2L432.5 345.4L430.5 349.6L424.9 347.7L424.0 345.6L418.5 342.4L417.3 337.5L414.2 334.5L414.1 331.6L407.9 330.0L404.9 331.2L404.4 333.9L401.2 335.3L401.7 338.2L406.0 340.7L402.6 344.0L403.0 346.3L400.8 347.6L402.5 350.8L411.7 354.9L414.4 359.3L414.2 361.6L420.1 367.6L418.7 369.2L417.0 368.0L416.5 370.0L421.0 375.5L424.0 405.6L426.7 408.8L426.9 404.2L430.8 400.4L436.7 407.2L434.8 409.4L438.5 413.1L438.5 414.9L443.1 412.5L447.9 421.5L449.5 421.8L449.5 421.8Z" fill="#A2A2A2" stroke="#D8D8D8" stroke-width="1.65" stroke-linejoin="round" vector-effect="non-scaling-stroke"/>
        <g id="Centre_23"><circle id="Centre_510000" cx="469.4" cy="377.1" r="7" fill="white"/></g>
      </g>
      <g id="520000-贵州省">
        <path id="520000-贵州省_2" fill-rule="evenodd" clip-rule="evenodd" d="M555.1 408.9L553.5 409.9L552.6 413.1L548.2 412.5L547.2 408.6L546.7 410.8L545.5 410.7L546.1 406.9L541.9 406.0L541.4 400.5L538.1 400.3L535.4 401.9L533.7 398.6L529.5 398.4L528.8 403.2L527.0 404.3L526.4 402.9L523.9 402.6L523.5 404.0L521.3 404.2L522.0 406.0L520.5 406.2L519.9 408.3L518.0 407.7L519.1 405.6L516.6 403.0L517.2 406.9L515.8 406.5L515.5 407.7L510.0 403.8L509.0 406.0L505.6 406.9L505.9 409.4L508.3 409.8L509.3 412.3L512.6 411.8L514.2 413.2L515.3 416.0L514.1 417.1L506.0 418.1L502.4 416.9L500.4 421.7L498.9 421.0L496.4 422.5L492.1 421.9L489.8 420.0L487.4 422.5L484.3 420.0L480.2 424.8L482.5 426.3L482.6 430.9L486.5 432.0L487.1 430.5L490.1 430.8L491.0 429.7L494.5 434.1L492.7 435.6L490.1 443.1L497.1 448.6L494.5 450.6L495.7 451.5L493.5 454.6L496.2 456.2L502.2 451.9L513.2 457.0L515.0 455.5L514.5 453.1L525.4 450.3L525.1 447.7L528.2 445.7L532.1 450.9L534.6 449.8L537.2 452.4L540.9 451.5L541.4 448.5L543.3 447.6L547.9 450.6L548.5 446.7L553.3 448.3L553.9 445.7L551.3 445.6L554.1 444.6L557.6 445.7L559.8 440.7L559.0 438.3L556.2 438.0L558.0 435.4L556.2 433.1L559.0 432.4L558.2 430.6L559.9 430.0L559.3 428.5L557.8 427.1L551.2 428.7L549.0 427.7L553.8 423.0L556.0 423.5L558.2 421.6L555.8 416.3L556.8 412.1L555.2 411.4L555.0 409.3L555.1 408.9Z" fill="#A2A2A2" stroke="#D8D8D8" stroke-width="1.65" stroke-linejoin="round" vector-effect="non-scaling-stroke"/>
        <g id="Centre_24"><circle id="Centre_520000" cx="524.2" cy="429.5" r="7" fill="white"/></g>
      </g>
      <g id="530000-云南省">
        <path id="530000-云南省_2" fill-rule="evenodd" clip-rule="evenodd" d="M501.9 417.4L501.2 413.6L498.5 412.1L496.3 414.4L491.4 414.7L488.7 412.4L490.6 411.6L490.5 409.6L488.0 407.7L488.0 406.0L490.1 404.9L482.7 404.1L481.9 405.9L483.2 408.7L481.0 410.2L479.3 409.7L477.6 412.0L479.2 413.0L478.4 415.3L474.2 419.9L471.7 420.0L471.0 421.4L471.4 426.3L473.5 430.9L472.7 433.5L469.3 435.0L467.5 433.0L461.8 436.4L458.4 436.6L455.1 433.5L455.7 432.2L452.9 430.3L454.0 427.4L452.4 427.9L452.1 425.9L449.1 424.0L449.5 421.8L447.9 421.5L443.1 412.5L441.4 413.9L440.1 413.1L438.7 414.9L438.5 413.1L436.7 412.5L434.8 409.4L436.7 407.2L430.8 400.4L426.9 404.2L426.7 408.8L425.8 408.2L424.0 405.6L423.2 395.5L421.5 395.7L421.5 400.4L420.0 400.8L419.1 398.3L417.1 398.7L418.3 408.0L414.3 409.4L413.1 405.9L411.2 409.0L413.5 416.8L415.1 415.0L418.4 416.5L419.7 428.1L419.0 434.2L417.2 434.2L418.9 437.5L416.7 437.6L414.1 441.2L412.2 440.2L411.9 443.1L409.4 445.1L408.1 444.4L406.6 446.6L407.7 449.5L404.5 450.7L404.4 454.3L406.2 454.2L407.4 457.7L404.5 460.4L406.1 461.5L411.7 458.7L421.7 458.3L419.2 460.5L419.2 462.4L422.0 464.6L421.0 465.6L422.4 467.0L422.2 469.5L430.5 471.5L431.0 473.2L429.5 473.1L427.9 475.3L428.8 478.2L426.1 482.1L436.6 483.7L437.0 487.8L438.8 488.0L438.9 490.2L440.3 490.7L442.8 490.1L444.7 491.1L451.5 487.7L453.1 494.0L460.1 495.4L461.0 494.2L459.6 493.1L459.8 490.3L460.7 489.9L456.7 482.5L458.2 479.7L465.9 480.8L468.8 476.8L475.7 481.1L479.2 477.0L482.0 479.7L483.4 477.4L487.7 481.1L489.5 477.6L491.4 477.3L493.0 479.2L495.7 477.5L497.6 477.9L499.2 473.9L503.8 473.0L504.9 471.6L507.9 474.2L509.8 472.7L509.0 471.7L511.7 470.4L513.7 471.5L515.5 470.1L515.9 466.4L513.2 463.3L510.6 464.3L507.8 462.7L506.6 464.1L503.5 463.4L501.3 458.9L496.8 458.1L496.1 459.8L494.3 458.4L493.1 455.5L495.7 451.5L494.5 450.6L497.1 448.6L490.1 443.1L494.2 433.4L491.0 429.7L490.1 430.8L487.1 430.5L486.5 432.0L483.3 431.7L481.7 428.2L482.5 426.3L480.2 424.8L484.3 420.0L487.4 422.5L489.8 420.0L492.1 421.9L496.4 422.5L498.9 421.0L500.4 421.7L501.7 418.4L501.9 417.4Z" fill="#74BCFF" stroke="#D8D8D8" stroke-width="1.65" stroke-linejoin="round" vector-effect="non-scaling-stroke"/>
        <g id="Centre_25"><circle id="Centre_530000" cx="455.0" cy="449.2" r="7" fill="white"/></g>
      </g>
      <g id="540000-西藏自治区">
        <path id="540000-西藏自治区_2" fill-rule="evenodd" clip-rule="evenodd" d="M302.0 305.5L291.5 301.9L289.4 302.8L285.5 300.3L273.4 302.2L271.5 301.1L267.8 302.8L256.1 304.5L253.1 308.9L247.2 311.5L242.6 309.7L239.6 310.2L227.6 315.4L213.7 314.9L212.0 313.8L211.6 311.3L204.8 310.7L199.0 314.2L198.9 315.9L194.3 317.1L186.4 314.8L184.5 316.1L177.4 314.2L175.1 316.3L176.4 317.5L171.9 319.8L168.8 327.1L158.5 327.9L157.0 331.4L153.4 332.3L155.0 336.9L153.7 338.0L160.1 344.1L162.2 351.7L157.6 355.1L155.1 353.2L154.5 350.3L150.2 352.1L151.4 355.5L150.3 356.9L154.8 360.1L153.3 361.7L155.9 364.4L154.5 365.4L154.7 367.6L158.1 371.6L161.1 372.8L163.5 371.2L166.1 373.1L167.0 372.4L170.3 374.3L172.1 377.2L185.5 381.7L186.8 384.6L188.5 384.6L188.6 382.8L190.3 382.3L190.7 379.5L199.9 380.4L200.9 383.9L206.1 385.3L209.7 388.7L215.6 390.1L220.0 395.1L224.3 393.2L227.0 393.7L228.2 394.3L228.6 398.6L232.0 400.6L237.0 402.6L239.7 401.3L241.6 401.9L240.5 405.4L247.0 406.5L248.6 405.1L252.4 410.8L254.1 410.6L253.5 408.6L254.9 407.6L255.5 410.0L257.9 410.8L260.0 408.4L261.8 408.4L268.8 412.0L275.5 412.1L276.9 410.6L280.7 411.4L287.8 408.3L290.4 409.6L289.6 416.3L292.3 419.4L295.0 417.4L293.8 416.2L295.7 412.2L303.0 406.8L313.6 409.5L315.1 408.8L319.4 411.6L323.1 409.1L325.2 409.8L327.1 411.2L326.8 415.5L333.1 417.4L333.7 424.0L340.8 422.8L346.8 423.7L356.0 422.0L356.4 420.3L361.9 415.3L369.8 413.3L374.9 410.9L376.3 408.4L381.8 406.6L383.9 407.8L387.5 407.5L398.1 413.7L401.7 412.0L401.2 407.6L403.3 406.5L403.9 403.8L411.2 409.0L413.1 405.9L414.3 409.4L418.3 408.0L417.1 398.7L419.1 398.3L420.0 400.8L421.5 400.4L421.3 396.2L423.2 395.5L421.6 389.6L422.5 386.4L421.0 375.5L416.5 370.0L417.0 368.0L418.7 369.2L420.1 367.6L414.2 361.6L414.4 359.3L411.7 354.9L406.4 352.5L400.9 352.0L401.8 355.1L400.2 355.5L400.3 358.4L392.9 359.2L394.4 363.0L393.6 363.6L389.7 362.4L388.7 360.4L386.1 360.6L386.9 363.3L385.7 364.5L383.5 361.8L381.5 363.5L377.5 362.6L375.6 359.9L376.8 359.3L376.6 357.3L375.0 357.4L374.0 355.2L372.0 355.7L373.8 354.2L369.8 354.0L366.0 350.6L359.9 353.7L354.5 351.9L351.8 353.2L348.2 350.8L346.0 351.3L345.4 349.8L335.4 350.0L334.8 348.1L331.5 348.7L326.0 345.1L317.7 345.3L310.5 342.8L305.9 339.2L305.0 336.0L300.9 332.7L304.0 329.1L302.1 324.6L304.0 322.7L303.0 321.2L300.2 321.5L300.4 318.8L298.5 317.2L299.1 315.3L302.7 313.7L301.8 312.9L303.2 308.8L299.8 308.7L297.9 306.5L301.7 305.5L302.0 305.5Z" fill="#A2A2A2" stroke="#D8D8D8" stroke-width="1.65" stroke-linejoin="round" vector-effect="non-scaling-stroke"/>
        <g id="Centre_26"><circle id="Centre_540000" cx="282.6" cy="364.9" r="7" fill="white"/></g>
      </g>
      <g id="610000-陕西省">
        <path id="610000-陕西省_2" fill-rule="evenodd" clip-rule="evenodd" d="M570.7 320.7L568.6 319.4L568.7 316.6L574.5 305.3L572.4 297.4L573.3 291.2L571.9 289.8L571.9 284.7L576.6 280.6L576.0 278.4L578.2 276.5L577.5 273.4L574.6 270.8L574.5 267.3L580.5 262.2L581.9 255.6L584.3 254.1L586.0 250.5L583.4 249.2L584.6 246.4L580.7 248.0L578.1 251.3L575.6 249.9L573.6 251.0L570.4 249.1L571.2 251.6L567.5 252.8L566.7 252.0L566.8 254.3L554.1 264.9L552.3 268.3L554.0 270.9L552.0 272.4L550.2 270.7L549.6 276.0L540.7 277.4L539.2 277.1L538.7 275.1L534.7 273.9L529.4 278.2L528.9 288.3L536.9 290.3L538.9 292.5L541.2 291.8L544.4 294.7L545.1 293.9L547.0 295.2L547.3 300.5L544.6 302.8L545.9 310.7L536.7 312.3L533.9 311.4L532.6 312.4L535.4 315.9L530.7 317.3L527.0 317.9L522.4 314.9L517.6 315.3L516.8 316.7L517.9 319.8L514.4 322.6L519.6 325.5L518.7 327.3L517.1 326.7L517.8 328.7L515.4 332.2L517.6 336.9L517.0 337.8L515.8 336.4L512.4 337.4L509.6 336.5L507.6 339.9L506.1 339.9L509.4 342.3L508.7 345.3L503.2 347.1L504.5 349.5L510.4 347.1L511.4 349.2L515.3 350.6L519.5 348.8L523.9 349.2L524.1 351.6L526.6 353.6L528.9 351.7L529.2 353.3L532.2 353.6L536.3 357.2L539.9 355.3L543.1 355.4L554.4 362.2L554.5 363.4L558.8 363.3L559.3 357.7L557.5 354.9L559.5 350.5L565.0 351.3L567.8 350.0L566.3 347.1L561.8 346.4L561.9 343.6L556.8 342.4L557.9 341.2L569.8 342.2L572.7 340.7L575.1 343.1L579.9 339.5L579.6 335.8L573.5 331.3L574.7 330.5L573.6 329.3L574.4 327.2L571.5 326.1L572.4 324.6L570.5 321.3L570.7 320.7Z" fill="#A2A2A2" stroke="#D8D8D8" stroke-width="1.65" stroke-linejoin="round" vector-effect="non-scaling-stroke"/>
        <g id="Centre_27"><circle id="Centre_610000" cx="550.5" cy="312.2" r="7" fill="white"/></g>
      </g>
      <g id="620000-甘肃省">
        <path id="620000-甘肃省_2" fill-rule="evenodd" clip-rule="evenodd" d="M517.4 305.8L516.5 306.6L517.2 311.2L515.3 313.1L512.9 310.3L512.1 311.5L511.6 310.0L509.2 310.8L511.3 309.5L508.6 309.7L506.7 306.8L507.6 306.4L502.7 305.7L502.3 302.2L504.6 300.5L502.8 295.6L501.4 294.8L500.9 292.8L502.7 291.3L500.6 288.6L497.9 288.1L495.7 285.2L493.9 286.0L494.6 283.0L488.2 283.3L482.0 278.4L478.5 277.4L478.2 274.2L480.4 273.1L479.0 269.6L484.9 265.9L489.5 260.7L487.8 256.4L488.5 254.6L485.4 254.2L478.8 256.5L474.3 260.0L467.3 258.2L459.3 260.9L462.2 263.6L458.3 267.1L452.7 265.7L451.6 262.3L448.2 263.5L446.6 262.4L446.9 257.0L442.5 257.3L439.5 253.4L434.1 251.1L429.3 250.9L434.4 248.9L438.8 244.9L439.9 238.6L438.3 236.4L432.8 235.8L431.4 237.1L426.3 237.1L425.3 239.7L423.9 238.3L421.3 239.5L421.4 240.9L419.8 238.6L415.5 241.6L415.5 236.6L410.9 234.2L406.6 229.3L409.5 226.1L401.2 209.7L390.9 210.9L387.1 212.8L385.4 215.3L388.0 218.5L386.7 219.5L387.4 221.4L386.3 222.6L379.9 224.8L376.3 228.2L374.2 225.2L366.3 229.2L359.3 235.0L355.9 241.5L344.9 243.0L341.0 258.1L337.0 262.0L337.9 264.8L347.2 262.7L348.0 266.3L355.2 266.2L357.2 267.0L355.5 267.8L357.2 269.0L363.6 268.4L366.0 274.1L371.3 272.9L377.5 274.7L380.8 273.2L387.9 276.6L389.4 274.7L393.1 275.3L393.2 271.8L394.7 271.4L394.9 270.0L398.2 270.1L396.8 265.7L397.2 261.6L402.1 261.9L411.5 267.0L414.1 263.6L417.9 264.8L420.9 262.5L424.6 264.3L424.0 265.1L431.3 271.1L437.2 274.0L437.7 272.6L435.7 270.7L436.5 270.0L441.1 273.2L447.1 274.3L446.8 276.7L450.6 278.9L455.6 278.9L458.2 281.3L460.6 280.2L461.8 283.5L468.4 288.6L466.4 289.0L465.9 290.6L469.2 293.3L467.6 294.1L470.5 299.3L473.3 300.8L470.9 302.8L471.9 303.3L471.5 306.3L468.6 306.6L469.4 310.6L465.9 310.0L465.1 312.0L463.2 312.3L464.5 315.7L460.1 319.8L458.2 320.1L458.4 324.0L461.1 325.1L462.4 327.1L460.0 328.0L458.5 330.6L455.6 331.0L446.1 327.1L443.7 329.9L446.5 333.8L448.5 334.4L448.6 336.9L453.8 336.6L454.2 339.0L457.5 337.9L458.3 339.7L456.0 342.1L457.2 344.4L460.4 341.8L461.4 342.7L462.2 340.2L464.7 339.6L460.7 332.5L467.2 330.8L466.6 329.9L470.6 327.5L473.9 330.7L473.6 334.5L476.0 335.3L478.1 334.4L478.1 336.2L484.7 336.0L486.4 337.1L486.9 339.9L489.4 340.9L487.9 341.2L488.3 344.9L489.5 345.3L487.7 346.3L487.7 347.8L492.2 350.1L498.2 351.0L502.6 349.1L502.2 346.4L508.0 346.1L509.4 342.3L506.1 339.9L507.6 339.9L508.6 337.4L515.8 336.4L517.0 337.8L517.6 336.9L515.4 332.2L517.8 328.7L517.1 326.7L518.7 327.3L519.6 325.5L514.4 322.6L517.9 319.8L516.8 316.7L517.6 315.3L522.4 314.9L527.0 317.9L535.1 316.2L532.6 312.4L533.9 311.4L536.7 312.3L545.4 311.2L546.1 307.6L544.6 302.8L547.3 300.5L547.0 295.2L545.1 293.9L544.4 294.7L541.2 291.8L538.9 292.5L536.9 290.3L528.9 288.3L527.4 285.1L519.8 285.6L520.0 288.1L518.7 287.8L519.9 291.5L518.1 291.7L516.1 294.2L518.1 295.3L517.7 298.2L522.1 298.6L523.7 300.5L522.1 303.5L522.7 305.3L520.7 306.4L518.2 305.8L517.4 305.8Z" fill="#A2A2A2" stroke="#D8D8D8" stroke-width="1.65" stroke-linejoin="round" vector-effect="non-scaling-stroke"/>
        <g id="Centre_28"><circle id="Centre_620000" cx="430.1" cy="265.0" r="7" fill="white"/></g>
      </g>
      <g id="630000-青海省">
        <path id="630000-青海省_2" fill-rule="evenodd" clip-rule="evenodd" d="M470.3 298.9L467.6 294.1L469.2 293.3L465.9 290.6L466.4 289.0L468.4 288.6L467.9 287.6L461.8 283.5L460.6 280.2L458.2 281.3L455.6 278.9L450.6 278.9L446.8 276.7L447.1 274.3L441.1 273.2L436.5 270.0L435.7 270.7L437.7 272.6L437.2 274.0L431.3 271.1L424.0 265.1L424.6 264.3L420.9 262.5L417.9 264.8L414.1 263.6L411.5 267.0L402.1 261.9L397.2 261.6L396.8 265.7L398.2 270.1L394.9 270.0L394.7 271.4L393.2 271.8L393.1 275.3L389.4 274.7L387.9 276.6L380.8 273.2L377.5 274.7L371.3 272.9L366.0 274.1L363.6 268.4L357.2 269.0L355.5 267.8L357.2 267.0L348.0 266.3L347.6 263.0L344.9 262.9L307.4 272.8L309.7 276.1L313.0 275.0L312.8 283.1L320.1 286.6L322.8 290.9L323.1 292.9L317.2 294.3L315.2 297.8L319.5 299.5L320.7 305.1L317.1 306.5L305.9 303.0L305.0 305.8L298.1 306.2L298.2 307.9L303.2 308.8L301.8 312.9L302.7 313.7L299.1 315.3L298.5 317.2L300.4 318.8L300.2 321.5L303.0 321.2L304.0 322.7L302.1 324.6L304.0 329.1L300.9 332.7L305.0 336.0L305.9 339.2L310.5 342.8L317.7 345.3L326.0 345.1L331.5 348.7L334.8 348.1L335.4 350.0L345.4 349.8L346.0 351.3L348.2 350.8L351.8 353.2L354.5 351.9L359.9 353.7L366.0 350.6L369.8 354.0L373.8 354.2L372.0 355.7L374.0 355.2L375.0 357.4L376.6 357.3L376.8 359.3L375.6 359.9L377.5 362.6L381.5 363.5L383.5 361.8L386.4 364.6L386.1 360.6L388.7 360.4L389.7 362.4L393.6 363.6L394.4 363.0L392.9 359.2L400.3 358.4L400.2 355.5L401.8 355.1L400.6 352.2L405.6 352.4L401.8 350.1L400.8 347.6L403.0 346.3L402.6 344.0L406.0 340.7L401.7 338.2L401.2 335.0L404.4 333.9L404.9 331.2L406.8 330.1L414.1 331.6L414.2 334.5L417.3 337.5L418.5 342.4L424.0 345.6L424.9 347.7L430.5 349.6L432.5 345.4L435.5 348.2L435.1 350.4L436.5 351.3L437.2 349.4L438.9 349.2L442.0 352.3L442.6 350.3L445.5 351.3L448.4 350.5L449.4 348.2L448.0 347.1L448.0 342.9L450.2 342.3L451.2 343.8L452.5 342.8L454.3 344.5L456.2 338.5L454.2 339.0L452.8 336.3L448.6 336.9L448.5 334.4L446.5 333.8L443.7 329.9L444.4 328.0L449.1 327.7L455.8 331.1L458.5 330.6L460.0 328.0L462.4 327.1L461.1 325.1L458.4 324.0L458.2 320.1L460.1 319.8L464.5 315.7L463.2 312.3L465.1 312.0L465.9 310.0L468.8 311.1L469.7 310.2L468.2 307.3L469.6 305.9L471.5 306.3L471.9 303.3L470.9 302.8L473.3 300.8L470.4 299.2L470.3 298.9Z" fill="#A2A2A2" stroke="#D8D8D8" stroke-width="1.65" stroke-linejoin="round" vector-effect="non-scaling-stroke"/>
        <g id="Centre_29"><circle id="Centre_630000" cx="383.8" cy="309.7" r="7" fill="white"/></g>
      </g>
      <g id="640000-宁夏回族自治区">
        <path id="640000-宁夏回族自治区_2" fill-rule="evenodd" clip-rule="evenodd" d="M528.5 285.6L529.4 278.2L534.3 274.5L528.2 270.4L524.9 270.9L518.9 268.6L525.7 259.2L523.4 253.0L517.0 255.1L517.0 256.8L515.1 256.8L512.6 260.5L510.8 264.4L508.9 276.6L489.5 283.0L494.6 283.0L493.9 286.0L495.7 285.2L497.9 288.1L500.6 288.6L502.7 291.3L500.9 292.8L501.4 294.8L502.8 295.6L504.6 300.5L502.3 302.2L502.7 305.7L507.6 306.4L506.7 306.8L508.6 309.7L511.7 309.4L512.1 311.5L513.7 310.7L515.3 313.1L517.2 311.2L516.5 306.6L520.7 306.4L523.1 304.6L522.1 303.5L523.3 302.8L523.3 299.8L520.1 298.0L517.7 298.2L518.1 295.3L516.0 293.8L519.9 291.5L518.7 287.8L520.0 288.1L519.6 285.7L528.0 285.7L528.5 285.6Z" fill="#A2A2A2" stroke="#D8D8D8" stroke-width="1.65" stroke-linejoin="round" vector-effect="non-scaling-stroke"/>
        <g id="Centre_30"><circle id="Centre_640000" cx="514.1" cy="283.7" r="7" fill="white"/></g>
      </g>
      <g id="650000-新疆维吾尔自治区">
        <path id="650000-新疆维吾尔自治区_2" fill-rule="evenodd" clip-rule="evenodd" d="M390.9 210.9L390.6 208.4L384.4 202.9L379.9 192.1L377.3 191.8L378.5 187.7L373.0 188.5L369.3 187.2L353.3 177.8L336.4 177.2L327.3 176.4L321.5 174.2L318.2 174.6L315.5 168.6L316.0 166.3L320.2 161.7L318.5 157.2L321.0 153.3L320.6 150.8L318.6 146.9L314.1 143.0L311.7 136.0L308.3 134.7L307.4 132.2L303.3 132.9L300.7 129.7L294.1 130.5L292.2 128.4L288.2 127.3L286.6 123.7L279.2 120.9L280.8 118.5L276.1 115.9L278.4 114.2L277.2 111.0L272.0 112.7L264.6 111.7L262.5 114.0L263.1 118.4L260.4 121.5L249.8 123.5L247.0 127.2L246.3 129.6L248.5 141.8L246.4 145.5L242.8 145.4L238.5 148.7L235.7 146.3L224.7 146.9L212.4 143.0L204.8 162.6L203.2 163.3L202.2 168.2L202.4 169.5L205.9 171.2L206.2 174.6L197.5 174.2L195.7 171.9L183.7 175.8L173.0 177.0L170.0 179.2L171.5 181.0L173.8 180.2L176.9 183.5L176.8 191.1L181.7 200.7L180.8 203.1L182.4 205.4L176.6 207.6L179.7 209.6L175.1 210.6L173.7 213.5L175.5 219.0L173.8 219.9L173.4 222.3L170.5 222.2L168.5 224.4L162.4 225.6L153.3 230.6L146.7 231.8L146.2 234.0L142.3 235.1L141.5 237.0L129.4 236.9L127.8 238.0L124.8 245.0L122.0 246.7L121.2 245.4L113.5 247.6L113.9 244.9L112.1 242.2L107.2 245.2L101.8 244.2L101.2 245.3L102.7 246.8L99.9 246.7L95.3 250.4L90.7 250.4L88.3 254.0L89.8 257.3L88.6 258.9L83.7 260.3L88.3 265.6L86.4 267.7L87.7 271.2L90.6 272.4L92.4 270.2L96.1 270.6L102.1 272.9L101.3 277.3L104.0 282.8L102.5 284.2L105.8 288.5L102.7 290.2L97.3 290.1L97.2 292.4L101.9 292.6L102.5 294.2L104.4 293.1L109.5 294.0L110.1 297.1L112.5 296.4L115.7 297.9L118.3 303.8L116.8 305.9L118.8 306.6L119.6 309.2L125.0 307.9L125.5 309.9L127.9 311.5L133.6 313.3L146.4 313.6L144.7 317.2L147.7 321.8L147.4 324.0L156.6 328.8L168.8 327.1L171.9 319.8L176.4 317.5L175.1 316.3L177.4 314.2L184.5 316.1L186.4 314.8L194.3 317.1L198.9 315.9L199.0 314.2L204.8 310.7L211.6 311.3L212.0 313.8L213.7 314.9L227.6 315.4L239.6 310.2L242.6 309.7L247.2 311.5L253.1 308.9L254.9 305.1L267.8 302.8L270.7 301.1L273.4 302.2L285.5 300.3L289.4 302.8L291.5 301.9L302.7 305.8L305.0 305.8L306.4 303.0L317.1 306.5L320.7 305.1L319.5 299.5L315.7 298.8L315.6 295.5L323.1 292.9L322.8 290.9L320.1 286.6L312.8 283.1L313.0 275.0L309.7 276.1L307.4 272.8L311.6 272.6L314.7 270.0L338.0 265.2L337.0 262.0L341.0 258.1L344.9 243.0L355.9 241.5L359.3 235.0L366.3 229.2L374.2 225.2L376.3 228.2L379.9 224.8L386.3 222.6L387.4 221.4L386.7 219.5L388.0 218.5L385.4 215.3L388.0 212.5L390.9 210.9Z" fill="#FF634D" stroke="#D8D8D8" stroke-width="1.65" stroke-linejoin="round" vector-effect="non-scaling-stroke"/>
        <g id="Centre_31"><circle id="Centre_650000" cx="242.4" cy="231.9" r="7" fill="white"/></g>
      </g>
      <g id="710000-台湾省">
        <path id="710000-台湾省_2" fill-rule="evenodd" clip-rule="evenodd" d="M723.9 488.8L726.6 491.1L727.4 494.7L729.8 495.0L731.8 487.4L738.7 479.8L742.3 467.9L746.1 462.3L745.7 458.5L748.2 456.3L746.9 454.6L741.4 452.6L733.8 456.4L719.4 473.7L717.9 481.4L719.6 482.3L721.7 487.8L723.9 488.8Z" fill="#A2A2A2" stroke="#D8D8D8" stroke-width="1.65" stroke-linejoin="round" vector-effect="non-scaling-stroke"/>
        <g id="Centre_32"><circle id="Centre_710000" cx="732.3" cy="472.3" r="7" fill="white"/></g>
      </g>
      <g id="810000-香港特别行政区">
        <path id="810000-香港特别行政区_2" fill-rule="evenodd" clip-rule="evenodd" d="M627.8 488.8L626.2 489.7L627.8 490.6L625.2 492.4L628.4 490.9L631.4 492.5L631.6 490.2L633.3 490.6L632.2 489.2L630.7 489.7L632.4 488.9L631.2 488.3L628.6 488.7L627.8 488.8Z" fill="#A2A2A2" stroke="#D8D8D8" stroke-width="1.65" stroke-linejoin="round" vector-effect="non-scaling-stroke"/>
        <g id="Centre_33"><circle id="Centre_810000" cx="639.7" cy="501.1" r="2.5" fill="white"/></g>
      </g>
      <g id="820000-澳门特别行政区">
        <path id="820000-澳门特别行政区_2" fill-rule="evenodd" clip-rule="evenodd" d="M620.9 493.3L621.6 493.0L621.1 492.2L620.9 492.0L620.6 492.1L620.5 492.5L620.8 492.9L620.9 493.3Z" fill="#A2A2A2" stroke="#D8D8D8" stroke-width="1.65" stroke-linejoin="round" vector-effect="non-scaling-stroke"/>
        <g id="Centre_34"><circle id="Centre_820000" cx="611.0" cy="504.6" r="2.5" fill="white"/></g>
      </g>
    </g>
  </g>
</svg>
